# xmcd CD database file
#
# Track frame offsets:
#	150
#	16855
#	31723
#	49682
#	67671
#	81172
#	101150
#	118079
#	133553
#	148724
#	165203
#	183151
#	200090
#	217366
#
# Disc length: 3098 seconds
#
# Revision: 0
# Processed by: cddbd v1.5.2PL0 Copyright (c) Steve Scherf et al.
# Submitted via: ACXtractor (MTCDDB.DLL V2003.07.15)
#
DISCID=bd0c180e
DTITLE=John Battle - Our Land Australia
DYEAR=2010
DGENRE=Country
TTITLE0=G'Day Mate
TTITLE1=Cinderella
TTITLE2=Chasing Buttons
TTITLE3=Our Land Australia
TTITLE4=Back to the Muster
TTITLE5=The Jungle of Kokoda
TTITLE6=Warrigal
TTITLE7=They Played the Wildwood Flower
TTITLE8=The Coads
TTITLE9=Old Bush Picker
TTITLE10=The Toll Bar Road
TTITLE11=Not So Dusty Anymore
TTITLE12=A Picture of Australia
TTITLE13=The Old Balladeer
EXTD=ID3G:   2 YEAR: 2010
EXTT0=
EXTT1=
EXTT2=
EXTT3=
EXTT4=
EXTT5=
EXTT6=
EXTT7=
EXTT8=
EXTT9=
EXTT10=
EXTT11=
EXTT12=
EXTT13=
PLAYORDER=
